<svg width="24" height="24" viewBox="0 0 24 24" fill="none" xmlns="http://www.w3.org/2000/svg">
<path d="M13 3C13 2.44772 12.5523 2 12 2C11.4477 2 11 2.44772 11 3V4C11 4.55228 11.4477 5 12 5C12.5523 5 13 4.55228 13 4V3Z" fill="#3A837D"/>
<path d="M13 21C13 21.5523 12.5523 22 12 22C11.4477 22 11 21.5523 11 21V18.4142L10.7071 18.7071C10.3166 19.0976 9.68342 19.0976 9.29289 18.7071C8.90237 18.3166 8.90237 17.6834 9.29289 17.2929L11.2929 15.2929C11.6834 14.9024 12.3166 14.9024 12.7071 15.2929L14.7071 17.2929C15.0976 17.6834 15.0976 18.3166 14.7071 18.7071C14.3166 19.0976 13.6834 19.0976 13.2929 18.7071L13 18.4142V21Z" fill="#3A837D"/>
<path d="M21 13C21.5523 13 22 12.5523 22 12C22 11.4477 21.5523 11 21 11H20C19.4477 11 19 11.4477 19 12C19 12.5523 19.4477 13 20 13H21Z" fill="#3A837D"/>
<path d="M5 12C5 12.5523 4.55228 13 4 13H3C2.44772 13 2 12.5523 2 12C2 11.4477 2.44772 11 3 11H4C4.55228 11 5 11.4477 5 12Z" fill="#3A837D"/>
<path d="M17.6568 19.0711C18.0474 19.4616 18.6805 19.4616 19.0711 19.0711C19.4616 18.6805 19.4616 18.0474 19.0711 17.6569L18.364 16.9497C17.9734 16.5592 17.3403 16.5592 16.9497 16.9497C16.5592 17.3403 16.5592 17.9734 16.9497 18.364L17.6568 19.0711Z" fill="#3A837D"/>
<path d="M7.05026 7.05025C6.65973 7.44078 6.02657 7.44078 5.63604 7.05025L4.92894 6.34315C4.53841 5.95262 4.53841 5.31946 4.92894 4.92893C5.31946 4.53841 5.95262 4.53841 6.34315 4.92893L7.05026 5.63604C7.44078 6.02656 7.44078 6.65973 7.05026 7.05025Z" fill="#3A837D"/>
<path d="M4.92893 17.6569C4.53841 18.0474 4.53841 18.6805 4.92893 19.0711C5.31946 19.4616 5.95262 19.4616 6.34315 19.0711L7.05025 18.364C7.44078 17.9734 7.44078 17.3403 7.05025 16.9497C6.65973 16.5592 6.02656 16.5592 5.63604 16.9497L4.92893 17.6569Z" fill="#3A837D"/>
<path d="M16.9498 7.05025C16.5592 6.65973 16.5592 6.02656 16.9498 5.63604L17.6569 4.92893C18.0474 4.53841 18.6805 4.53841 19.0711 4.92893C19.4616 5.31946 19.4616 5.95262 19.0711 6.34315L18.364 7.05025C17.9734 7.44078 17.3403 7.44078 16.9498 7.05025Z" fill="#3A837D"/>
<path d="M8.88852 13.6054C8.20788 12.2872 8.42185 10.6284 9.52512 9.52513C10.892 8.15829 13.108 8.15829 14.4749 9.52513C15.5781 10.6284 15.7921 12.2872 15.1115 13.6054C14.8581 14.0961 15.0505 14.6993 15.5412 14.9527C16.0319 15.2061 16.6351 15.0137 16.8885 14.523C17.9569 12.4539 17.6256 9.84739 15.8891 8.11091C13.7412 5.96303 10.2588 5.96303 8.1109 8.11091C6.37443 9.84739 6.04305 12.4539 7.11144 14.523C7.36483 15.0137 7.96806 15.2061 8.45879 14.9527C8.94951 14.6993 9.14191 14.0961 8.88852 13.6054Z" fill="#3A837D"/>
</svg>